<svg width="30" height="30" viewBox="0 0 30 30" fill="none" xmlns="http://www.w3.org/2000/svg">
<path d="M15 0C6.72965 0 0 6.72778 0 14.9991C0 23.2703 6.72965 29.9981 15 29.9981C23.2703 29.9981 30 23.2703 30 14.9991C30 6.72778 23.2703 0 15 0ZM15 28.9991C7.28064 28.9991 1.00094 22.7184 1.00094 14.9991C1.00094 7.2797 7.28064 0.999065 15 0.999065C22.7194 0.999065 28.9991 7.2797 28.9991 14.9991C28.9991 22.7184 22.7194 28.9991 15 28.9991Z" fill="white"/>
<path d="M18.2739 6.57986H15.7781C12.5994 6.54806 12.1934 8.51532 12.1934 10.6444V12.1926H10.7902C10.7268 12.1841 10.6623 12.1904 10.6017 12.2109C10.5411 12.2314 10.486 12.2656 10.4408 12.3108C10.3955 12.3561 10.3613 12.4112 10.3408 12.4718C10.3203 12.5324 10.314 12.5969 10.3225 12.6603V15.4667C10.314 15.5301 10.3203 15.5946 10.3408 15.6552C10.3613 15.7158 10.3955 15.7709 10.4408 15.8161C10.486 15.8614 10.5411 15.8956 10.6017 15.9161C10.6623 15.9366 10.7268 15.9429 10.7902 15.9344H12.1934V22.9503C12.1856 23.0138 12.1925 23.0783 12.2134 23.1388C12.2343 23.1993 12.2688 23.2542 12.3142 23.2993C12.3596 23.3445 12.4147 23.3786 12.4753 23.3992C12.5359 23.4198 12.6005 23.4262 12.664 23.418H15.5218C15.7977 23.4498 16.0213 23.2263 15.9334 22.9503L15.9352 15.9344H18.2739C18.3373 15.9429 18.4018 15.9366 18.4624 15.9161C18.523 15.8956 18.5781 15.8614 18.6233 15.8161C18.6686 15.7709 18.7028 15.7158 18.7233 15.6552C18.7438 15.5946 18.7501 15.5301 18.7416 15.4667V12.6603C18.7501 12.5969 18.7438 12.5324 18.7233 12.4718C18.7028 12.4112 18.6686 12.3561 18.6233 12.3108C18.5781 12.2656 18.523 12.2314 18.4624 12.2109C18.4018 12.1904 18.3373 12.1841 18.2739 12.1926H15.9324L15.9352 10.7894C16.026 10.1917 16.026 10.2889 16.5807 10.3217H18.2542C18.3843 10.2927 18.5227 10.3086 18.62 10.2141C18.7173 10.1196 18.7734 9.99053 18.7407 9.85395V7.04759C18.7493 6.98422 18.7432 6.91971 18.7228 6.85909C18.7024 6.79848 18.6683 6.74339 18.6231 6.69812C18.5779 6.65285 18.5229 6.61862 18.4623 6.59811C18.4018 6.5776 18.3373 6.57136 18.2739 6.57986ZM17.7734 9.33384L16.6003 9.28894C15.1476 9.28894 15.026 10.0775 15.026 10.8848L15.0222 12.6584C15.0221 12.7241 15.0349 12.7892 15.06 12.8499C15.085 12.9106 15.1218 12.9658 15.1682 13.0123C15.2146 13.0588 15.2697 13.0956 15.3304 13.1208C15.3911 13.146 15.4561 13.1589 15.5218 13.1589H17.8061V14.9662H15.5236C15.3911 14.9662 15.2639 15.0188 15.1701 15.1125C15.0763 15.2061 15.0234 15.3332 15.0232 15.4657L15.0222 22.4826H13.1289V15.4667C13.1289 15.1907 12.9408 14.9671 12.664 14.9671H11.258V13.1598H12.664C12.7296 13.1599 12.7946 13.1471 12.8553 13.1221C12.9159 13.097 12.9711 13.0603 13.0176 13.0139C13.1111 12.9194 13.1279 12.7922 13.1279 12.6594V10.6435C13.1279 8.54619 13.5517 7.54712 15.7771 7.54712H17.7725V9.33384H17.7734Z" fill="white"/>
</svg>
